<svg id="Layer_1" enable-background="new 0 0 512 512" height="512" viewBox="0 0 512 512" width="512" xmlns="http://www.w3.org/2000/svg"><g><g><path d="m0 275.091c0 90.542 48.382 170.112 120.926 214.826 9.889-15.728 37.784-60.092 73.739-117.276-32.941-20.304-54.911-56.436-54.911-97.55h-.001.001c0-63.349 52.148-114.887 116.246-114.887s116.246 51.538 116.246 114.887h.001-.001c0 41.114-21.97 77.246-54.911 97.55l73.739 117.276c72.544-44.714 120.926-124.285 120.926-214.826h-.001.001c0-139.509-114.841-253.007-256-253.007s-256 113.498-256 253.007z" fill="#ffe563"/><g><path d="m512 275.09c0-139.509-114.841-253.007-256-253.007-6.936 0-13.805.284-20.604.821 131.561 10.405 235.397 119.533 235.397 252.186h-.001.001c0 78.118-36.019 148.065-92.494 194.509l12.775 20.318c72.544-44.714 120.926-124.285 120.926-214.827z" fill="#ffdc2e"/></g><ellipse cx="256" cy="275.026" fill="#cce7f0" rx="79.963" ry="79.149"/><path d="m256 317.471c-24.763 0-44.574-22.707-40.491-47.286l30.328-182.572c1.86-11.197 18.465-11.197 20.325 0l30.328 182.572c4.084 24.578-15.727 47.286-40.49 47.286z" fill="#65b9d7"/><path d="m296.491 270.185-30.329-182.572c-1.86-11.197-18.465-11.197-20.325 0l9.446 182.572c2.846 17.135-5.926 33.35-19.887 41.606 6.065 3.587 13.104 5.68 20.604 5.68 24.763 0 44.574-22.708 40.491-47.286z" fill="#56aac7"/></g><g><path d="m256.677 275.026-.677-.565-.677.565z" fill="none"/><path d="m0 275.09c0 90.542 48.382 170.112 120.926 214.827 9.889-15.728 37.784-60.092 73.739-117.276-32.941-20.304-54.911-56.436-54.911-97.55h-.001.001c0-28.403 10.488-54.427 27.831-74.501l-106.673-89.125c-37.966 44.147-60.912 101.283-60.912 163.625z" fill="#b5e6a8"/><path d="m512 275.09c0-62.342-22.946-119.479-60.912-163.626l-106.673 89.126c17.343 20.074 27.831 46.098 27.831 74.501h.001-.001c0 41.114-21.97 77.246-54.911 97.55l73.739 117.276c72.544-44.714 120.926-124.285 120.926-214.827z" fill="#ff5781"/><path d="m512 275.09c0-62.342-22.946-119.479-60.912-163.626l-25.034 20.916c28.207 40.651 44.739 89.803 44.739 142.71h-.001.001c0 78.118-36.019 148.065-92.494 194.509l12.775 20.318c72.544-44.714 120.926-124.285 120.926-214.827z" fill="#ff4170"/></g></g></svg>